<svg xmlns="http://www.w3.org/2000/svg" viewBox="0 0 450 600" width="450" height="600">
  <defs>
    <!-- Gradient barres: bleu clair → bleu profond -->
    <linearGradient id="bar-grad" x1="0" y1="0" x2="0" y2="1">
      <stop offset="0" stop-color="#8fd1ff"/>
      <stop offset="0.55" stop-color="#6e5cf6"/>
      <stop offset="1" stop-color="#2911bf"/>
    </linearGradient>
    <!-- Gradient serpent: noir uni -->
    <linearGradient id="snake-grad" x1="0" y1="0" x2="0" y2="1">
      <stop offset="0" stop-color="#1a1a1a"/>
      <stop offset="1" stop-color="#0d0d0d"/>
    </linearGradient>
  </defs>

  <!-- Barre gauche -->
  <path
    d="M 85.011719 327.644531 L 85.011719 230.183594 C 85.011719 217.914062 95.757812 207.980469 109.015625 207.980469 C 122.277344 207.980469 133.019531 217.929688 133.019531 230.183594 L 133.019531 409.445312 C 133.019531 421.714844 122.277344 431.648438 109.015625 431.648438 C 95.757812 431.648438 85.011719 421.699219 85.011719 409.445312 Z"
    fill="url(#bar-grad)"
  />

  <!-- Barre centrale (la plus haute) -->
  <path
    d="M 195.410156 178.601562 L 195.410156 461.011719 C 195.410156 476.136719 208.671875 488.390625 225.015625 488.390625 C 241.359375 488.390625 254.617188 476.136719 254.617188 461.011719 L 254.617188 178.601562 C 254.617188 163.476562 241.359375 151.222656 225.015625 151.222656 C 208.671875 151.222656 195.410156 163.476562 195.410156 178.601562 Z"
    fill="url(#bar-grad)"
  />

  <!-- Barre droite -->
  <path
    d="M 317.023438 327.644531 L 317.023438 230.183594 C 317.023438 217.914062 327.769531 207.980469 341.027344 207.980469 C 354.289062 207.980469 365.035156 217.929688 365.035156 230.183594 L 365.035156 409.445312 C 365.035156 421.714844 354.289062 431.648438 341.027344 431.648438 C 327.769531 431.648438 317.023438 421.699219 317.023438 409.445312 Z"
    fill="url(#bar-grad)"
  />

  <!-- Serpent : tete + corps superieur -->
  <path
    d="M 219.59375 134.148438 C 214.125 133.96875 211.039062 135.671875 208.378906 140.511719 C 207.679688 141.777344 206.867188 143.1875 205.667969 145.003906 C 202.375 150.003906 198.753906 153.007812 196.15625 155.132812 C 193.558594 157.242188 186.953125 162.617188 175.753906 165.863281 C 169.164062 167.777344 167.007812 167.710938 150.453125 169.382812 C 135.308594 170.910156 124.484375 172.320312 109.8125 171.21875 C 104.472656 170.8125 98.660156 170.082031 94.328125 165.699219 C 90.433594 161.753906 89.621094 156.820312 89.425781 155.425781 C 88.339844 148.1875 91.761719 142.636719 92.800781 141.011719 C 95.511719 136.761719 97.199219 137.3125 104.617188 130.578125 C 108.105469 127.410156 111.839844 124.019531 115.347656 118.921875 C 119.726562 112.546875 118.671875 110.921875 122.242188 106.199219 C 126.546875 100.519531 131.835938 97.90625 137.128906 95.308594 C 139.691406 94.042969 145 91.640625 159.671875 88.71875 C 167.460938 87.160156 166.359375 87.761719 185.136719 84.886719 C 197.976562 82.925781 201.5625 82.519531 210.441406 82.277344 C 213.425781 82.195312 224.414062 82.519531 231.554688 83.265625 C 243.078125 84.464844 254.667969 88.476562 264.875 93.929688 C 296.589844 110.839844 317.023438 139.015625 317.023438 179.203125 C 317.023438 207.121094 298.3125 246.980469 254.441406 266.621094 C 241.796875 272.285156 235.96875 274.425781 221.558594 278.207031 C 205.714844 282.363281 195.410156 292.425781 195.410156 307.617188 L 195.410156 354.765625 C 175.867188 344.21875 162.578125 323.554688 162.578125 299.777344 C 162.578125 276 175.789062 255.453125 195.246094 244.886719 C 201.300781 241.640625 204.191406 239.9375 209.804688 237.257812 C 219.753906 232.519531 223.230469 230.960938 233.875 225.476562 C 243.0625 220.753906 245.855469 218.1875 247.363281 217.050781 C 250.007812 215.039062 251.339844 213.707031 254.601562 210.300781 C 258.058594 206.695312 263.773438 200.660156 266.742188 191.132812 C 268.023438 187.027344 268.707031 182.660156 268.707031 178.132812 C 268.707031 154.664062 250.1875 135.867188 226.996094 134.472656 C 226.394531 134.441406 224.769531 134.230469 223.472656 134.210938 C 223.40625 134.210938 220.242188 134.179688 219.578125 134.164062 Z"
    fill="url(#snake-grad)"
  />

  <!-- Serpent : corps inferieur (boucle basse) -->
  <path
    d="M 225.015625 383.949219 C 201.691406 387.910156 180.382812 403.929688 180.382812 428.582031 C 180.382812 441.875 186.207031 453.753906 195.425781 461.933594 C 195.425781 461.933594 195.410156 437.523438 195.410156 437.523438 C 199.777344 430.480469 206.300781 424.832031 225.015625 422.984375 C 256.128906 418.242188 277.972656 402.597656 277.972656 373.351562 C 277.972656 355.074219 268.707031 338.957031 254.617188 329.429688 L 254.617188 372.75 C 246.746094 379.746094 237.429688 382.226562 225.015625 383.980469 Z"
    fill="url(#snake-grad)"
  />

  <!-- Serpent : queue -->
  <path
    d="M 247.347656 517.230469 C 245.511719 518.53125 243.128906 516.324219 244.34375 514.425781 C 246.03125 511.777344 247.234375 508.339844 247.234375 503.792969 C 247.234375 496.117188 243.746094 489.574219 237.753906 485.664062 L 238.519531 485.289062 C 247.332031 480.40625 252.199219 474.109375 254.277344 464.875 C 259.601562 471.316406 262.605469 479.382812 262.621094 488.390625 C 262.636719 501.441406 256.160156 510.984375 247.332031 517.25 Z"
    fill="url(#snake-grad)"
  />
</svg>
